# xmcd
#
# Track frame offsets:
#	150
#	21065
#	40527
#	62737
#	81677
#	103150
#	134192
#	169055
#	191680
#	216937
#	241027
#
# Disc length: 3365 seconds
#
# Revision: 1
# Processed by: cddbd v1.5.1PL0 Copyright (c) Steve Scherf et al.
# Submitted via: CDex 1.50Beta5
#
DISCID=9d0d230b
DTITLE=THE VOICE PROJECT - 聲「SHOW」
DYEAR=1900
DGENRE=Other
TTITLE0=AFRICAN FRAGMENTS
TTITLE1=たまゆら
TTITLE2=リコメング
TTITLE3=月と海の約束
TTITLE4=Hiranibura
TTITLE5=午後の美術館
TTITLE6=IN THE GARDEN
TTITLE7=三つの星と羅針盤
TTITLE8=雲の名前
TTITLE9=声
TTITLE10=夢の出逢うところ
EXTD=
EXTT0=
EXTT1=
EXTT2=
EXTT3=
EXTT4=
EXTT5=
EXTT6=
EXTT7=
EXTT8=
EXTT9=
EXTT10=
PLAYORDER=
